# xmcd CD database file
#
# Track frame offsets:
#	150
#	34929
#	70741
#	102412
#	128229
#	155735
#	198635
#	233027
#	273197
#
# Disc length: 3973 seconds
#
# Revision: 0
# Processed by: cddbd v1.4PL0 Copyright (c) Steve Scherf et al.
# Submitted via: CDex 1.50beta10
#
DISCID=7e0f8309
DTITLE=Time For Wellness - Time For Tranquility
DYEAR=2001
DGENRE=New Age
TTITLE0=Robert Ploska - Enchanting
TTITLE1=Steve Quinzi - Tranquil Rain
TTITLE2=Robert Ploska - Sun Showers
TTITLE3=Jeffery Smith - Serene Escapes
TTITLE4=Steve Quinzi - Soothing Sounds
TTITLE5=Daniel Donadi - Garden of Tranquility
TTITLE6=John Bickerton - Calming Skies
TTITLE7=Curtis Lawyer - Pure Relaxation
TTITLE8=Curtis Lawyer - New Beginnings
EXTD=YEAR: 2001
EXTT0=
EXTT1=
EXTT2=
EXTT3=
EXTT4=
EXTT5=
EXTT6=
EXTT7=
EXTT8=
PLAYORDER=
